<svg xmlns="http://www.w3.org/2000/svg" xmlns:xlink="http://www.w3.org/1999/xlink" width="500" zoomAndPan="magnify" viewBox="0 0 375 374.999991" height="500" preserveAspectRatio="xMidYMid meet" version="1.0"><defs><clipPath id="92f89752b7"><path d="M 125.0625 96.457031 L 249.9375 96.457031 L 249.9375 221.328125 L 125.0625 221.328125 Z M 125.0625 96.457031 " clip-rule="nonzero"/></clipPath><clipPath id="33f7d8156e"><path d="M 187.5 96.457031 C 153.019531 96.457031 125.0625 124.410156 125.0625 158.890625 C 125.0625 193.375 153.019531 221.328125 187.5 221.328125 C 221.980469 221.328125 249.9375 193.375 249.9375 158.890625 C 249.9375 124.410156 221.980469 96.457031 187.5 96.457031 Z M 187.5 96.457031 " clip-rule="nonzero"/></clipPath><clipPath id="ede0cd7e7c"><path d="M 58.085938 230.992188 L 317 230.992188 L 317 375 L 58.085938 375 Z M 58.085938 230.992188 " clip-rule="nonzero"/></clipPath><clipPath id="fbc80814a8"><path d="M 116.585938 230.992188 L 258.414062 230.992188 C 273.929688 230.992188 288.808594 237.15625 299.78125 248.125 C 310.75 259.097656 316.914062 273.976562 316.914062 289.492188 L 316.914062 425.714844 C 316.914062 458.023438 290.722656 484.214844 258.414062 484.214844 L 116.585938 484.214844 C 101.070312 484.214844 86.191406 478.050781 75.21875 467.078125 C 64.25 456.109375 58.085938 441.230469 58.085938 425.714844 L 58.085938 289.492188 C 58.085938 257.183594 84.277344 230.992188 116.585938 230.992188 Z M 116.585938 230.992188 " clip-rule="nonzero"/></clipPath></defs><rect x="-37.5" width="450" fill="#ffffff" y="-37.499999" height="449.999989" fill-opacity="1"/><rect x="-37.5" width="450" fill="#80c6ff" y="-37.499999" height="449.999989" fill-opacity="1"/><g clip-path="url(#92f89752b7)"><g clip-path="url(#33f7d8156e)"><path fill="#545454" d="M 125.0625 96.457031 L 249.9375 96.457031 L 249.9375 221.328125 L 125.0625 221.328125 Z M 125.0625 96.457031 " fill-opacity="1" fill-rule="nonzero"/></g></g><g clip-path="url(#ede0cd7e7c)"><g clip-path="url(#fbc80814a8)"><path fill="#545454" d="M 58.085938 230.992188 L 317.242188 230.992188 L 317.242188 484.214844 L 58.085938 484.214844 Z M 58.085938 230.992188 " fill-opacity="1" fill-rule="nonzero"/></g></g></svg>